<svg xmlns="http://www.w3.org/2000/svg" xmlns:xlink="http://www.w3.org/1999/xlink" width="2000" zoomAndPan="magnify" viewBox="0 0 1500 1499.999933" height="2000" preserveAspectRatio="xMidYMid meet" version="1.0"><defs><clipPath id="90415322b3"><path d="M 0 75 L 0 1425 C 0 1466.421875 33.578125 1500 75 1500 L 1425 1500 C 1466.421875 1500 1500 1466.421875 1500 1425 L 1500 75 C 1500 33.578125 1466.421875 0 1425 0 L 75 0 C 33.578125 0 0 33.578125 0 75 Z M 0 75 " clip-rule="nonzero"/></clipPath><clipPath id="eb04c6df6b"><path d="M 487 495 L 1013 495 L 1013 1005 L 487 1005 Z M 487 495 " clip-rule="nonzero"/></clipPath><clipPath id="58aaf53be7"><path d="M 0 75 L 0 1425 C 0 1466.421875 33.578125 1500 75 1500 L 1425 1500 C 1466.421875 1500 1500 1466.421875 1500 1425 L 1500 75 C 1500 33.578125 1466.421875 0 1425 0 L 75 0 C 33.578125 0 0 33.578125 0 75 Z M 0 75 " clip-rule="nonzero"/></clipPath></defs><rect x="-150" width="1800" fill="#ffffff" y="-149.999993" height="1799.99992" fill-opacity="1"/><rect x="-150" width="1800" fill="#ffffff" y="-149.999993" height="1799.99992" fill-opacity="1"/><g clip-path="url(#90415322b3)"><rect x="-150" width="1800" fill="#ffffff" y="-149.999993" height="1799.99992" fill-opacity="1"/></g><g clip-path="url(#eb04c6df6b)"><g clip-path="url(#58aaf53be7)"><path fill="#404040" d="M 565.0625 959.21875 L 565.0625 540.78125 C 560.0625 535.78125 555.21875 532.761719 550.53125 531.71875 C 545.738281 530.78125 533.082031 530.050781 512.5625 529.53125 L 487.875 529.53125 L 487.875 495 L 1012.09375 495 L 1012.09375 529.53125 L 987.40625 529.53125 C 966.886719 530.050781 954.019531 530.78125 948.8125 531.71875 C 943.5 532.761719 939.125 535.78125 935.6875 540.78125 L 935.6875 959.21875 C 939.125 964.21875 943.5 967.238281 948.8125 968.28125 C 954.019531 969.21875 966.886719 969.949219 987.40625 970.46875 L 1012.09375 970.46875 L 1012.09375 1005 L 1003.8125 1005 C 995.375 1003.542969 959.386719 1002.8125 895.84375 1002.8125 C 832.40625 1002.8125 796.417969 1003.542969 787.875 1005 L 779.59375 1005 L 779.59375 970.46875 L 804.4375 970.46875 C 824.855469 969.949219 837.457031 969.21875 842.25 968.28125 C 847.042969 967.238281 851.9375 964.21875 856.9375 959.21875 L 856.9375 529.53125 L 643.1875 529.53125 L 643.1875 744.0625 L 643.8125 959.21875 C 647.355469 964.21875 651.730469 967.238281 656.9375 968.28125 C 662.25 969.21875 675.167969 969.949219 695.6875 970.46875 L 720.375 970.46875 L 720.375 1005 L 712.09375 1005 C 703.65625 1003.542969 667.667969 1002.8125 604.125 1002.8125 C 540.582031 1002.8125 504.59375 1003.542969 496.15625 1005 L 487.875 1005 L 487.875 970.46875 L 512.5625 970.46875 C 533.082031 969.949219 545.738281 969.21875 550.53125 968.28125 C 555.21875 967.238281 560.0625 964.21875 565.0625 959.21875 Z M 565.0625 959.21875 " fill-opacity="1" fill-rule="nonzero"/></g></g></svg>